<?xml version="1.0" encoding="UTF-8" standalone="no"?>
<!-- Created with Inkscape (http://www.inkscape.org/) -->

<svg
   xmlns:dc="http://purl.org/dc/elements/1.1/"
   xmlns:cc="http://creativecommons.org/ns#"
   xmlns:rdf="http://www.w3.org/1999/02/22-rdf-syntax-ns#"
   xmlns:svg="http://www.w3.org/2000/svg"
   xmlns="http://www.w3.org/2000/svg"
   xmlns:sodipodi="http://sodipodi.sourceforge.net/DTD/sodipodi-0.dtd"
   xmlns:inkscape="http://www.inkscape.org/namespaces/inkscape"
   width="744.09448819"
   height="1052.3622047"
   id="svg2"
   version="1.1"
   inkscape:version="0.48.5 r10040"
   sodipodi:docname="New document 1">
  <defs
     id="defs4" />
  <sodipodi:namedview
     id="base"
     pagecolor="#ffffff"
     bordercolor="#666666"
     borderopacity="1.0"
     inkscape:pageopacity="0.0"
     inkscape:pageshadow="2"
     inkscape:zoom="1.4"
     inkscape:cx="316.41115"
     inkscape:cy="520"
     inkscape:document-units="px"
     inkscape:current-layer="layer1"
     showgrid="false"
     inkscape:window-width="1440"
     inkscape:window-height="830"
     inkscape:window-x="0"
     inkscape:window-y="0"
     inkscape:window-maximized="1" />
  <metadata
     id="metadata7">
    <rdf:RDF>
      <cc:Work
         rdf:about="">
        <dc:format>image/svg+xml</dc:format>
        <dc:type
           rdf:resource="http://purl.org/dc/dcmitype/StillImage" />
        <dc:title></dc:title>
      </cc:Work>
    </rdf:RDF>
  </metadata>
  <g
     inkscape:label="Layer 1"
     inkscape:groupmode="layer"
     id="layer1">
    <path
       style="fill:#000000;fill-opacity:1;stroke:none"
       d="m 208.33507,373.78125 -11.46007,11.11689 7.09235,0 0,13.88311 8.74583,0 0,-13.88311 7.09235,0 -11.47046,-11.11689 z"
       id="path2987"
       inkscape:connector-curvature="0" />
    <path
       sodipodi:type="star"
       style="fill:#000000;fill-opacity:1;stroke:none"
       id="path3762"
       sodipodi:sides="5"
       sodipodi:cx="299.00516"
       sodipodi:cy="342.22495"
       sodipodi:r1="56.36977"
       sodipodi:r2="28.184885"
       sodipodi:arg1="1.0471976"
       sodipodi:arg2="1.6755161"
       inkscape:flatsided="false"
       inkscape:rounded="0"
       inkscape:randomized="0"
       d="m 327.19004,391.0426 -31.13101,-20.78717 -34.77261,13.86042 10.14976,-36.03094 -23.92737,-28.78762 37.40391,-1.48117 19.98469,-31.65215 12.96712,35.11552 36.27858,9.22552 -29.38978,23.18376 z"
       inkscape:transform-center-x="-0.43402487"
       inkscape:transform-center-y="-0.86329637"
       transform="matrix(0.23837078,0,0,0.23837078,233.96681,305.43275)" />
    <path
       d="m 396.05869,380.234 0,17.19228 c 4.10097,0.12512 8.1176,0.70936 11.10952,2.07855 0.88223,0.40371 1.89867,0.40368 2.78096,0 2.9918,-1.36895 7.00904,-1.95349 11.10952,-2.07855 l 0,-17.19228 c -4.7755,0.14569 -9.43897,0.91358 -12.5,2.81919 -3.06115,-1.90561 -7.7245,-2.6735 -12.5,-2.81919 z"
       id="book-15-icon"
       inkscape:connector-curvature="0" />
    <rect
       style="fill:#ffff00;fill-opacity:1;stroke:none"
       id="rect3778"
       width="35"
       height="35"
       x="179.80716"
       y="470.86969" />
    <rect
       y="470.86969"
       x="259.80716"
       height="35"
       width="35"
       id="rect3780"
       style="fill:#ffff00;fill-opacity:1;stroke:none" />
    <rect
       style="fill:#ffff00;fill-opacity:1;stroke:none"
       id="rect3782"
       width="35"
       height="35"
       x="339.80716"
       y="470.86969" />
    <path
       inkscape:connector-curvature="0"
       id="path3784"
       d="m 335.69286,666.78851 -11.46007,11.11689 7.09235,0 0,13.88311 8.74583,0 0,-13.88311 7.09235,0 -11.47046,-11.11689 z"
       style="fill:#000000;fill-opacity:1;stroke:none" />
    <path
       transform="matrix(0.23837078,0,0,0.23837078,372.35771,496.35158)"
       inkscape:transform-center-y="-0.86329637"
       inkscape:transform-center-x="-0.43402487"
       d="m 327.19004,391.0426 -31.13101,-20.78717 -34.77261,13.86042 10.14976,-36.03094 -23.92737,-28.78762 37.40391,-1.48117 19.98469,-31.65215 12.96712,35.11552 36.27858,9.22552 -29.38978,23.18376 z"
       inkscape:randomized="0"
       inkscape:rounded="0"
       inkscape:flatsided="false"
       sodipodi:arg2="1.6755161"
       sodipodi:arg1="1.0471976"
       sodipodi:r2="28.184885"
       sodipodi:r1="56.36977"
       sodipodi:cy="342.22495"
       sodipodi:cx="299.00516"
       sodipodi:sides="5"
       id="path3786"
       style="fill:#000000;fill-opacity:1;stroke:none"
       sodipodi:type="star" />
    <path
       inkscape:connector-curvature="0"
       id="path3788"
       d="m 534.44959,571.15283 0,17.19228 c 4.10097,0.12512 8.1176,0.70936 11.10952,2.07855 0.88223,0.40371 1.89867,0.40368 2.78096,0 2.9918,-1.36895 7.00904,-1.95349 11.10952,-2.07855 l 0,-17.19228 c -4.7755,0.14569 -9.43897,0.91358 -12.5,2.81919 -3.06115,-1.90561 -7.7245,-2.6735 -12.5,-2.81919 z" />
    <g
       id="g3806"
       inkscape:export-xdpi="90"
       inkscape:export-ydpi="90">
      <rect
         style="fill:#ffff00;fill-opacity:1;stroke:none;opacity:0"
         id="rect3790"
         width="35"
         height="35"
         x="318.19806"
         y="549.66156" />
      <path
         inkscape:connector-curvature="0"
         id="path3796"
         d="m 335.69286,554.66156 -11.46007,11.11689 7.09235,0 0,13.88311 8.74583,0 0,-13.88311 7.09235,0 -11.47046,-11.11689 z"
         style="fill:#000000;fill-opacity:1;stroke:none" />
    </g>
    <g
       id="g3810"
       inkscape:export-xdpi="90"
       inkscape:export-ydpi="90">
      <rect
         y="562.79358"
         x="374.96454"
         height="35"
         width="35"
         id="rect3792"
         style="fill:#ffff00;fill-opacity:1;stroke:none;opacity:0" />
      <path
         transform="matrix(0.23837078,0,0,0.23837078,320.75642,499.58045)"
         inkscape:transform-center-y="-0.86329637"
         inkscape:transform-center-x="-0.43402487"
         d="m 327.19004,391.0426 -31.13101,-20.78717 -34.77261,13.86042 10.14976,-36.03094 -23.92737,-28.78762 37.40391,-1.48117 19.98469,-31.65215 12.96712,35.11552 36.27858,9.22552 -29.38978,23.18376 z"
         inkscape:randomized="0"
         inkscape:rounded="0"
         inkscape:flatsided="false"
         sodipodi:arg2="1.6755161"
         sodipodi:arg1="1.0471976"
         sodipodi:r2="28.184885"
         sodipodi:r1="56.36977"
         sodipodi:cy="342.22495"
         sodipodi:cx="299.00516"
         sodipodi:sides="5"
         id="path3798"
         style="fill:#000000;fill-opacity:1;stroke:none"
         sodipodi:type="star" />
    </g>
    <g
       id="g3802"
       inkscape:export-filename="/Users/franciscobaila/Desktop/open.png"
       inkscape:export-xdpi="90"
       inkscape:export-ydpi="90">
      <rect
         style="fill:#ffff00;fill-opacity:1;stroke:none;opacity:0"
         id="rect3794"
         width="35"
         height="35"
         x="262.76932"
         y="557.37872" />
      <path
         inkscape:connector-curvature="0"
         id="path3800"
         d="m 267.76932,565.09192 0,17.19228 c 4.10097,0.12512 8.1176,0.70936 11.10952,2.07855 0.88223,0.40371 1.89867,0.40368 2.78096,0 2.9918,-1.36895 7.00904,-1.95349 11.10952,-2.07855 l 0,-17.19228 c -4.7755,0.14569 -9.43897,0.91358 -12.5,2.81919 -3.06115,-1.90561 -7.7245,-2.6735 -12.5,-2.81919 z" />
    </g>
    <path
       inkscape:connector-curvature="0"
       id="book-icon"
       d="m 454.16072,377.49839 c -1.30001,0 -1.30001,-1.90109 0,-1.90109 0.75074,0 11.74876,0 17.83928,0 v -2.09226 h -18.38988 c -1.52041,0 -2.75297,1.23256 -2.75297,2.75297 v 17.17858 c 0,1.52041 1.23256,2.75297 2.75297,2.75297 H 472 v -18.69117 c 0,0 -16.98266,0 -17.83928,0 z" />
    <g
       id="g3831"
       inkscape:export-filename="/Users/franciscobaila/Desktop/read.png"
       inkscape:export-xdpi="90"
       inkscape:export-ydpi="90">
      <rect
         style="opacity:0;fill:#ffff00;fill-opacity:1;stroke:none"
         id="rect3823"
         width="35"
         height="35"
         x="512.86475"
         y="623.3324" />
      <path
         inkscape:connector-curvature="0"
         id="path3829"
         d="m 522.35507,632.73338 c -1.43271,0 -1.43271,-2.09514 0,-2.09514 0.82737,0 12.94799,0 19.66019,0 v -2.30582 h -20.267 c -1.6756,0 -3.03397,1.35837 -3.03397,3.03397 v 18.93206 c 0,1.6756 1.35837,3.03397 3.03397,3.03397 h 20.267 v -20.59904 c 0,0 -18.71614,0 -19.66019,0 z" />
    </g>
  </g>
</svg>
